<?xml version="1.0" encoding="utf-8"?>
<!-- Generator: Adobe Illustrator 23.1.0, SVG Export Plug-In . SVG Version: 6.00 Build 0)  -->
<svg version="1.1" xmlns="http://www.w3.org/2000/svg" xmlns:xlink="http://www.w3.org/1999/xlink" x="0px" y="0px"
	 viewBox="0 0 2880 1620" style="enable-background:new 0 0 2880 1620;" xml:space="preserve">
<style type="text/css">
	.st0{clip-path:url(#SVGID_2_);fill:url(#SVGID_3_);}
	.st1{clip-path:url(#SVGID_5_);fill:url(#SVGID_6_);}
	.st2{opacity:0.3;}
	.st3{clip-path:url(#SVGID_8_);}
	.st4{clip-path:url(#SVGID_10_);fill:url(#SVGID_11_);}
	.st5{opacity:0.2;}
	.st6{clip-path:url(#SVGID_13_);}
	.st7{clip-path:url(#SVGID_15_);fill:url(#SVGID_16_);}
	.st8{clip-path:url(#SVGID_18_);}
	.st9{clip-path:url(#SVGID_20_);fill:url(#SVGID_21_);}
	.st10{clip-path:url(#SVGID_23_);}
	.st11{clip-path:url(#SVGID_25_);fill:url(#SVGID_26_);}
	.st12{opacity:0.4;}
	.st13{clip-path:url(#SVGID_28_);}
	.st14{clip-path:url(#SVGID_30_);fill:url(#SVGID_31_);}
	.st15{clip-path:url(#SVGID_33_);}
	.st16{clip-path:url(#SVGID_35_);fill:url(#SVGID_36_);}
	.st17{clip-path:url(#SVGID_38_);}
	.st18{clip-path:url(#SVGID_40_);fill:url(#SVGID_41_);}
	.st19{clip-path:url(#SVGID_43_);}
	.st20{clip-path:url(#SVGID_45_);fill:url(#SVGID_46_);}
	.st21{fill:none;}
	.st22{opacity:0.5;}
	.st23{clip-path:url(#SVGID_48_);}
	.st24{clip-path:url(#SVGID_50_);fill:url(#SVGID_51_);}
</style>
<g id="图层_1">
	<g>
		<g>
			<defs>
				<rect id="SVGID_1_" x="0.29" width="2879.71" height="1620"/>
			</defs>
			<clipPath id="SVGID_2_">
				<use xlink:href="#SVGID_1_"  style="overflow:visible;"/>
			</clipPath>
			
				<linearGradient id="SVGID_3_" gradientUnits="userSpaceOnUse" x1="-1.899014e-04" y1="1620.0007" x2="0.9999" y2="1620.0007" gradientTransform="matrix(0 1095.937 1095.937 0 -1773978.5 -97.196)">
				<stop  offset="0" style="stop-color:#005CAA"/>
				<stop  offset="0.5674" style="stop-color:#F6BCB8"/>
				<stop  offset="1" style="stop-color:#F6B377"/>
			</linearGradient>
			<rect x="0.29" class="st0" width="2879.71" height="1620"/>
		</g>
		<g>
			<defs>
				<rect id="SVGID_4_" x="878.7" y="1302.2" width="5.48" height="16.48"/>
			</defs>
			<clipPath id="SVGID_5_">
				<use xlink:href="#SVGID_4_"  style="overflow:visible;"/>
			</clipPath>
			
				<linearGradient id="SVGID_6_" gradientUnits="userSpaceOnUse" x1="-3.165927e-03" y1="1619.9998" x2="1.0006" y2="1619.9998" gradientTransform="matrix(0 -228.6678 -228.6678 0 371323.25 1503.4424)">
				<stop  offset="0" style="stop-color:#000000"/>
				<stop  offset="1" style="stop-color:#E3A8A6"/>
			</linearGradient>
			<rect x="878.7" y="1302.2" class="st1" width="5.48" height="16.48"/>
		</g>
	</g>
</g>
<g id="图层_2">
	<g class="st2">
		<g>
			<defs>
				<rect id="SVGID_7_" x="1249.7" y="811.19" width="415.1" height="65.77"/>
			</defs>
			<clipPath id="SVGID_8_">
				<use xlink:href="#SVGID_7_"  style="overflow:visible;"/>
			</clipPath>
			<g class="st3">
				<defs>
					<path id="SVGID_9_" d="M1265.97,818.96c104.74-6.8,138.64-8.11,189.48,0c50.83,8.11-7.94,0.54,76.9-2.43
						c84.84-2.97,186.51-13.78,98.71,7.83c-87.81,21.61-62.39,32.42-124.78,37.82c-62.39,5.4-69.32-5.4-94.74-2.7
						c-25.42,2.7-9.24,29.72-43.9,10.81c-34.66-18.91-9.24-18.91-53.14-21.61C1270.59,845.97,1224.38,821.66,1265.97,818.96"/>
				</defs>
				<clipPath id="SVGID_10_">
					<use xlink:href="#SVGID_9_"  style="overflow:visible;"/>
				</clipPath>
				
					<linearGradient id="SVGID_11_" gradientUnits="userSpaceOnUse" x1="-5.384894e-04" y1="1619.7578" x2="0.9994" y2="1619.7578" gradientTransform="matrix(0 -59.4372 -59.4372 0 97745.4844 918.8846)">
					<stop  offset="0" style="stop-color:#FBDDD9"/>
					<stop  offset="0.4508" style="stop-color:#FADBD7"/>
					<stop  offset="0.6132" style="stop-color:#F6D4D2"/>
					<stop  offset="0.7285" style="stop-color:#EDC9C9"/>
					<stop  offset="0.815" style="stop-color:#E3BABC"/>
					<stop  offset="1" style="stop-color:#E3BABC"/>
				</linearGradient>
				<rect x="1224.38" y="802.75" class="st4" width="494.48" height="86.45"/>
			</g>
		</g>
	</g>
	<g class="st5">
		<g>
			<defs>
				<rect id="SVGID_12_" x="1350.92" y="100.32" width="1535.05" height="427.54"/>
			</defs>
			<clipPath id="SVGID_13_">
				<use xlink:href="#SVGID_12_"  style="overflow:visible;"/>
			</clipPath>
			<g class="st6">
				<defs>
					<path id="SVGID_14_" d="M2885.97,430.79V100.32c-3.91,1.53-7.93,2.91-12.02,4.18c-16.94,13.02-32.31,28.07-50.45,39.38
						c-25.32,15.79-72.31,34.68-100.71,42.95c-21.41,6.23-48.35,8.17-71.46,8.04c-25.85-0.14-53.79-16.66-76.18-15.54
						c-29.94,1.49-46.67,29.56-72.02,38.59c-11.96,4.26-33.35,1.38-46.38,1.27c-40.55-0.35-75.63-3.42-103.94,19.51
						c-21,17.02-43.49,31.79-73.74,45.35c-34.57,15.49-70.11,31.82-108.32,37.78c-36.51,5.69-73.38,0.39-110.06,2.29
						c-3.1,3.53-6.79,6.71-11.51,9.3c-17.73,9.75-39.47,8.93-57.12,20.71c-29.01,19.36-41.93,30.15-79.87,30.57
						c-64.02,0.72-121.96-7.84-182.86,15.88c-48.33,18.82-94.95,41.66-147.95,49.38c-25.47,3.7-245.02,26.66-229.7,52.31
						c5.84,9.78,33.34,0.22,43.79,0.68c42.69,1.86,67.64,14.12,111.22,6.82c28.93-4.84,64.74-17.81,94.49-14.75
						c35.12,3.62,76.44,34.31,111.21,32.79c14.1-0.62,25.21-12.34,38.93-13.31c12.83-0.91,30.2,6.35,43.34,7.95
						c56.16,6.84,119.07-13.12,173.41,1.57c27.98,7.57,47.08,1.65,74.5,1.01c34.87-0.82,73.48-11.3,107.64-1.53
						c32.26,9.26,35.35-1.66,61.73-7.65c36.51-8.29,72.82,9.8,108.36,2.89c43.69-8.49,77.64-29.09,113.98-49.82
						c38.96-22.23,88.78-30.91,134.5-33.53c26.29-1.5,46.74-17.73,71.97-21.08c29.87-3.97,48.79,11.39,76.61,19.19
						C2774.76,449.63,2830.63,444.92,2885.97,430.79"/>
				</defs>
				<clipPath id="SVGID_15_">
					<use xlink:href="#SVGID_14_"  style="overflow:visible;"/>
				</clipPath>
				
					<linearGradient id="SVGID_16_" gradientUnits="userSpaceOnUse" x1="2.492724e-04" y1="1620.0122" x2="1.0005" y2="1620.0122" gradientTransform="matrix(0 -593.402 -593.402 0 963429.6875 651.156)">
					<stop  offset="0" style="stop-color:#FAD5D5"/>
					<stop  offset="0.0169" style="stop-color:#FAD5D5"/>
					<stop  offset="0.4831" style="stop-color:#746DA5"/>
					<stop  offset="1" style="stop-color:#746DA5"/>
				</linearGradient>
				<rect x="1336.37" y="100.32" class="st7" width="1549.6" height="432.43"/>
			</g>
		</g>
	</g>
	<g class="st5">
		<g>
			<defs>
				<rect id="SVGID_17_" x="551.73" y="208.85" width="681.15" height="139.6"/>
			</defs>
			<clipPath id="SVGID_18_">
				<use xlink:href="#SVGID_17_"  style="overflow:visible;"/>
			</clipPath>
			<g class="st8">
				<defs>
					<path id="SVGID_19_" d="M918.83,245.98c3.68,0.82,7.39,1.75,11.25,2.74c40.74,10.4,80.38,24.6,120.91,35.72
						c18.55,5.09,34.65,6.22,52.86,8.04c20.24,2.02,35.2,15.21,53.71,21.1c8.47,2.69,17.24,2.75,25.37,6.44
						c11.23,5.09,18.96,13.78,30.98,17.74c6.47,2.12,13.58,2.23,18.96,6.25c-5.82,7.86-46.8,2.96-56.78,2.64
						c-21.58-0.69-42.56-6.59-63.6-11.89c-35.91-9.05-76.67,8.63-113.94,3.3c-33.31-4.76-59.62-19.81-90.61-26.41
						c-25.94-5.52-54.02-2.35-80.16-5.53c-20.52-2.5-46.74,3.22-66.9-2.52c-25.79-7.35-53.13-25.82-78.22-36.17
						c-12.78-5.27-26.49-7.45-39.58-11.71c-13.47-4.38-18.73-11.21-29.63-18.6c-16.7-11.33-43.08-7.09-56.77-23.1
						c-1.82-0.5-3.23-0.15-4.96-0.82c15.31-7.48,39.92-4.02,56.17,0.92c18.71,5.7,37.89,4.15,57.07,5.59
						c32.27,2.43,64.65,3.39,95.19,15.35c42.53,16.66,83.01,12.59,127.58,8.45C899.12,242.44,908.83,243.76,918.83,245.98"/>
				</defs>
				<clipPath id="SVGID_20_">
					<use xlink:href="#SVGID_19_"  style="overflow:visible;"/>
				</clipPath>
				
					<linearGradient id="SVGID_21_" gradientUnits="userSpaceOnUse" x1="-5.240751e-04" y1="1619.9984" x2="0.9995" y2="1619.9984" gradientTransform="matrix(68.9703 -163.4849 -163.4849 -68.9703 265720.2188 112051.7578)">
					<stop  offset="0" style="stop-color:#FAD5D5"/>
					<stop  offset="0.8133" style="stop-color:#8F76A1"/>
					<stop  offset="1" style="stop-color:#C9A7BC"/>
				</linearGradient>
				<polygon class="st9" points="499.38,329.79 654.65,-38.24 1285.23,227.79 1129.97,595.81 				"/>
			</g>
		</g>
	</g>
	<g class="st2">
		<g>
			<defs>
				<rect id="SVGID_22_" x="0.29" y="95.9" width="2885.68" height="721.72"/>
			</defs>
			<clipPath id="SVGID_23_">
				<use xlink:href="#SVGID_22_"  style="overflow:visible;"/>
			</clipPath>
			<g class="st10">
				<defs>
					<path id="SVGID_24_" d="M2885.97,95.9c-22.01,14.49-40.15,34.07-62.47,47.98c-25.32,15.79-72.31,34.68-100.71,42.95
						c-21.41,6.23-48.35,8.17-71.46,8.04c-25.85-0.14-53.79-16.66-76.18-15.54c-29.94,1.49-46.67,29.56-72.02,38.59
						c-11.96,4.26-33.35,1.38-46.38,1.27c-40.55-0.35-75.63-3.42-103.94,19.51c-21,17.02-43.49,31.79-73.74,45.35
						c-34.57,15.49-70.11,31.82-108.32,37.78c-37.33,5.81-75.03,0.12-112.53,2.41c-60.23,3.68-110.69,31.23-166.79,47.11
						c-57.43,16.26-127.15,8.95-187.43,12.56c-77.94,4.67-145.25-20.09-217.69,7.03c29.27,3.76,96.47-8.4,118.87,13.04
						c-30.88,5.2-63.75,1.43-94.91,6.43c-28.75,4.61-53.01,18.44-82.16,22.25c-48.58,6.35-103.63,6.02-152.32,7.99
						c-40.94,1.65-82.79,6.03-124.62,2.75c-47.46-3.72-92.3-12.5-137.57-25.92c-26.54-7.87-34.43-17.66-57.05-29.49
						c-20.32-10.63-31.55-9.46-54.94-9.42c-22.93,0.03-39.37-4.12-59.27-8.22c42.29,1.57,96.13-7.56,109.97-21.09
						c-114.85-36.71-251.76-11.81-371.84-36.67c-40.15-8.31-76.11-29.95-115.31-41.31c-8.71-2.52-22.36-6.95-30.35-11.23
						c-28.11-15.05-23.06-21.93-56.45-24.66c-38.37-3.13-76.2,4.71-112.79-5.87c-24.45-7.07-49.6-22.09-71.29-29.24
						C128.11,178.45,66.24,150.9,0.29,129.22v646.97c63.9,8.14,138.08,0.15,201.98-3.15c114.7-5.92,227.9-13.53,343.26-13.52
						c65.54,0,121.15-3.48,181.15,19.37c69,26.28,133.88,31.74,207.16,37.49c55.16,4.32,99.82-3.02,151.67-16.98
						c55.9-15.05,120.19,5.76,173.55-10.85c-0.67-2.87-2.16-6.4-3.17-9.72c-49.19,1.37-106.71,2.36-155.46-3.65
						c-38.35-4.73-135.05-20.42-149.23-59.35c64.2,1.16,123.58,19.04,189.43,13.51c36.86-3.09,71.9-15.56,109.84-15.81
						c42.07-0.27,67.62,18.89,105.49,34.07c85.7,34.36,188.56,20.02,282.74,20.02c83.9,0,181.24,15.1,261.16-6.09
						c76.14-20.19,148.18-47.86,222.91-70.15c51.3-15.3,103.76-15.71,158.51-15.61c142.43,0.26,284.8,2.69,427.24,2.69
						c50.08,0,106.61,5.55,154.11-4.78c7.86-1.71,15.63-4.01,23.35-6.57V95.9z M791.88,357.25c4.39,4.6,12.46,7.88,22.74,10.03
						C804.32,367.49,795.66,367.51,791.88,357.25"/>
				</defs>
				<clipPath id="SVGID_25_">
					<use xlink:href="#SVGID_24_"  style="overflow:visible;"/>
				</clipPath>
				
					<linearGradient id="SVGID_26_" gradientUnits="userSpaceOnUse" x1="8.313361e-04" y1="1620.0001" x2="1.0008" y2="1620.0001" gradientTransform="matrix(2885.6848 0 0 -2885.6848 -2.1104 4675268)">
					<stop  offset="0" style="stop-color:#FBDDD9"/>
					<stop  offset="0.0169" style="stop-color:#FBDDD9"/>
					<stop  offset="0.6469" style="stop-color:#F7C1BE"/>
					<stop  offset="1" style="stop-color:#F7C1BE"/>
				</linearGradient>
				<rect x="0.29" y="95.9" class="st11" width="2885.68" height="724.8"/>
			</g>
		</g>
	</g>
	<g class="st12">
		<g>
			<defs>
				<rect id="SVGID_27_" x="0.29" y="694.14" width="735.84" height="227.93"/>
			</defs>
			<clipPath id="SVGID_28_">
				<use xlink:href="#SVGID_27_"  style="overflow:visible;"/>
			</clipPath>
			<g class="st13">
				<defs>
					<path id="SVGID_29_" d="M611.7,875.94c-12.03-1.51-22.85-3.14-31.28-5.46c-21.91-6.02-37.48-25.76-57.76-35.39
						c-21.21-10.07-45.69-11.21-66.74-21.43c-14.65-7.11-17.93-17.1-34.8-21.13c-36.35-8.69-72.54,3.74-107.05-9.33
						c-45.8-17.33-93.61-29.52-135.8-51.72c-26.14-13.75-48.14-26.77-76.88-31.41c-6.67-1.08-55.12-3.05-101.1-5.95v171.71
						c5.83-2.21,11.86-3.55,19.12-2.46c13.38,1.99,24.25,11.68,38.19,12.58c20.52,1.32,41.83,5.97,60.7,13.9
						c20.43,8.58,37.91,20.38,61.1,19.54c18.62-0.67,35.81-14.67,52.96-15.23c25.28-0.83,49.25,19.61,75.19,15.14
						c16.35-2.82,30.15-13,46.87-8.42c-3.36,2.99-4.67,7.5-6.88,10.22c35.55,19.05,55.88,4.8,91.59,1.43
						c44.83-4.22,92.89,7.43,137.91,9.07c53.72,1.95,106.06-2.96,159.1-5.88C717.59,885.37,656.29,881.52,611.7,875.94"/>
				</defs>
				<clipPath id="SVGID_30_">
					<use xlink:href="#SVGID_29_"  style="overflow:visible;"/>
				</clipPath>
				
					<linearGradient id="SVGID_31_" gradientUnits="userSpaceOnUse" x1="7.138596e-04" y1="1619.995" x2="1.0007" y2="1619.995" gradientTransform="matrix(735.8394 0 0 -735.8394 -0.2367 1192868.375)">
					<stop  offset="0" style="stop-color:#FBDDD9"/>
					<stop  offset="0.0169" style="stop-color:#FBDDD9"/>
					<stop  offset="0.4831" style="stop-color:#F7C1BE"/>
					<stop  offset="1" style="stop-color:#F7C1BE"/>
				</linearGradient>
				<rect x="0.29" y="694.14" class="st14" width="735.84" height="236.04"/>
			</g>
		</g>
	</g>
	<g class="st5">
		<g>
			<defs>
				<rect id="SVGID_32_" x="1991.95" y="-1" width="894.02" height="210.4"/>
			</defs>
			<clipPath id="SVGID_33_">
				<use xlink:href="#SVGID_32_"  style="overflow:visible;"/>
			</clipPath>
			<g class="st15">
				<defs>
					<path id="SVGID_34_" d="M2885.97-1h-389c-18.01,7.85-36.15,15.66-53.88,24.12c-36.57,17.44-78.73,9.82-117.98,23.16
						c-18.21,6.19-20.41,16.52-35.7,25.48c-21.97,12.87-49.09,17.18-71.26,29.92c-21.21,12.19-35.67,33.79-59.22,42.6
						c-9.06,3.39-20.88,6.42-34.07,9.47c-48.89,11.33-116.67,23.12-132.9,55.64c59.54-4.01,118.62-5.94,178.21-14.86
						c49.94-7.48,101.81-25.27,152.41-26.92c40.3-1.31,65.05,10.18,101.9-13.33c-2.87-2.41-4.98-6.71-9.16-9.24
						c17.97-6.71,34.84,1.59,53.48,2.26c29.57,1.06,53.3-22.32,81.61-24.79c19.2-1.68,40.41,9.97,61.26,8.21
						c25.97-2.18,43.73-16.16,65.25-27.32c19.88-10.32,42.96-17.71,65.63-21.68c15.41-2.7,26.11-13.72,40.74-17.44
						c17.32-4.41,29.86,3.37,47,6.07c19.29,3.04,37.76,2.42,55.68-0.73V-1z"/>
				</defs>
				<clipPath id="SVGID_35_">
					<use xlink:href="#SVGID_34_"  style="overflow:visible;"/>
				</clipPath>
				
					<linearGradient id="SVGID_36_" gradientUnits="userSpaceOnUse" x1="1.264687e-04" y1="1620.0001" x2="1.0001" y2="1620.0001" gradientTransform="matrix(0 -278.0022 -278.0022 0 452802.5938 217.5786)">
					<stop  offset="0" style="stop-color:#FAD5D5"/>
					<stop  offset="0.0169" style="stop-color:#FAD5D5"/>
					<stop  offset="0.4831" style="stop-color:#8F76A1"/>
					<stop  offset="1" style="stop-color:#8F76A1"/>
				</linearGradient>
				<rect x="1991.96" y="-1" class="st16" width="894.02" height="210.4"/>
			</g>
		</g>
	</g>
	<g class="st2">
		<g>
			<defs>
				<rect id="SVGID_37_" x="1.64" y="204.86" width="1164.7" height="521.06"/>
			</defs>
			<clipPath id="SVGID_38_">
				<use xlink:href="#SVGID_37_"  style="overflow:visible;"/>
			</clipPath>
			<g class="st17">
				<defs>
					<path id="SVGID_39_" d="M1094.47,684.01c-16.81-7.8-26.94-18.25-50.14-22.78c-25.42-4.96-54.09,4.22-79.16-1.48
						c-17.32-3.94-29.87-19.22-45.11-26.52c-4.89-2.34-9.38-3.93-13.95-5.21c-7.13-2.01-14.44-3.3-23.73-5.62
						c-33.88-8.44-76.17-33.89-110.9-33.07c-17.41,0.41-33.03,11.34-53.36,8.1c-33.39-5.33-29.38-37.8-50.85-55.92
						c-21.03-17.74-57.39-17.63-83.2-21.84c-41.11-6.72-62-51.48-106.54-49.91c-22.31,0.79-40.55,15-62.53,8.89
						c-18.42-5.12-29.31-24.91-48.84-28.9c-22.68-4.64-49.44,8.7-69.93-1.47c-22.75-11.29-32.17-25.31-59.86-29.27
						c-25.8-3.69-52.4,0.58-77.97,4.03c-45.58,6.14-100.62,19.24-140.83-10.91c-5.52-42.75,82.12-17.68,108.42-15.61
						c28.17,2.21,51.54-7.36,78.5-11.37c32.25-4.8,68.15-0.61,100.74,0.94c37.58,1.78,68.44,2.17,105.52,10.24
						c26.6,5.79,66.15,22.95,91.41,8.29c-31.66-20.9-76.62-16.59-108.23-39.85c-27.27-20.07-54.77-49.01-87.53-59.39
						c-20.61-6.53-47.54,5.99-68.5,0.08c-58.63-16.52-86.99-61.82-149.08-64.67c-23.67-1.08-31.22-0.11-50.06-14.19
						c-0.01-0.01-0.02-0.02-0.03-0.02c-7.89-5.9-22.71-15.93-37.11-21.73v439.91c1.69,0.11,3.4,0.2,5.13,0.26
						c41.29,1.26,81.41-27.16,119.4-25.87c41.59,1.42,81.29,26.07,119.71,39.89c39.36,14.15,75.83,13.82,117.75,11.33
						c22.84-1.36,37.14,4.99,54.06,16.2c35.1,23.27,82.48,30.62,127.58,26.65c37.04-3.26,72.67,1.92,109.17,7.83
						c58.08,9.39,128.81,4.25,186.17-7.53c28.38-5.83,57.34,5.01,84.23,0.19c23.46-4.2,41.14-17.38,65.47-14.5
						c27.78,3.29,53.39,8.72,82.96,8.97h0.04c30.26,0.27,63.81,13.21,93.03,6.33C1157,694.73,1113.77,692.97,1094.47,684.01"/>
				</defs>
				<clipPath id="SVGID_40_">
					<use xlink:href="#SVGID_39_"  style="overflow:visible;"/>
				</clipPath>
				
					<linearGradient id="SVGID_41_" gradientUnits="userSpaceOnUse" x1="-1.924140e-04" y1="1619.9991" x2="0.9994" y2="1619.9991" gradientTransform="matrix(85.0453 -913.9163 -913.9163 -85.0453 1481104.5 138489.0313)">
					<stop  offset="0" style="stop-color:#FAD5D5"/>
					<stop  offset="0.0169" style="stop-color:#FAD5D5"/>
					<stop  offset="0.4831" style="stop-color:#8F76A1"/>
					<stop  offset="1" style="stop-color:#8F76A1"/>
				</linearGradient>
				<polygon class="st18" points="-46.85,725.94 11.64,97.41 1214.83,209.37 1156.34,837.9 				"/>
			</g>
		</g>
	</g>
	<g class="st2">
		<g>
			<defs>
				<rect id="SVGID_42_" x="1441.4" y="528.61" width="1449.13" height="468.37"/>
			</defs>
			<clipPath id="SVGID_43_">
				<use xlink:href="#SVGID_42_"  style="overflow:visible;"/>
			</clipPath>
			<g class="st19">
				<defs>
					<path id="SVGID_44_" d="M2890.53,528.61c-22.86,4.26-45.72,15.08-64.57,23.26c-32.47,14.08-62.45,8.66-96.42,19.14
						c-35.63,10.99-54.62,18.31-94.18,18.31c-46.36,0-47.87,10.53-82.46,31.83c-18.32,11.28-73.73,11.57-68.94,38.01
						c32.68,3.42,75.59-7.51,109.35-9.28c42.04-2.2,84.43-4.79,126.2,1.59c-50.98,11.33-91.22,39.09-144.68,39.12
						c-37.85,0-57.34,0.21-96.52,6.81c-44.13,7.44-88.79-3.49-132.85,1.79c-25.53,3.06-45.05,15.18-69.27,21.32
						c-37.73,9.57-66.85,9.75-101.32,29.43c-29.18,16.65-56.04,35.97-89.97,44.65c-50.42,12.89-124.57-5.68-157.03,40.06
						c57.95,22.52,121.79-30.07,183.58-12.74c16.94,4.75,30.17,8.68,48.23,8.5c17.14-0.18,75.13-11.28,69.69,13.2
						c-44.59,25.79-111.75-16.56-162.69-1.13c-71.47,21.65-120.51,47.25-200.69,49.71c-37.85,1.16-72.35,3.39-106.49,16.69
						c-33.78,13.15-64.08,28.68-101.09,30.74c-39.05,2.18-62.88,0.46-96.45,20.16c-16,9.38-33.05,9.75-51.35,11.65
						c-23.65,2.45-51.06,11.92-69.2,25.53c12.03,0.43,203.9-1.99,197.88-15.67c9.19,20.87,42.91,3.74,59.34,0.89
						c37.02-6.43,66.96,5.88,103.43,8.78c24.19,1.92,41.95-7.49,64.85-9.87c38.72-4.02,73.99,15.06,112.73,4.07
						c28.21-8,47.41-10.78,76.01-11.39c31.98-0.69,61.86-15.8,94.26-14.86c24.71,0.72,49.52,18.67,76.36,19.54
						c33.43,1.08,58.62-14.06,88.09-25.07c27.21-10.17,57.94-16.14,87.52-17.83c20.1-1.15,35.77-13.57,55.07-16.13
						c28.63-3.81,51.02,18.25,79.6,16.63c28.58-1.62,56.25-15.4,86.35-17.28c80.91-5.03,162.12,2.45,243.02-2.79
						c5.72-0.37,14.67,0.42,24.63,1.35V528.61z"/>
				</defs>
				<clipPath id="SVGID_45_">
					<use xlink:href="#SVGID_44_"  style="overflow:visible;"/>
				</clipPath>
				
					<linearGradient id="SVGID_46_" gradientUnits="userSpaceOnUse" x1="1.342912e-03" y1="1620.0002" x2="1.0014" y2="1620.0002" gradientTransform="matrix(-2.6856 -445.8684 -445.8684 2.6856 724474.9375 -3243.6577)">
					<stop  offset="0" style="stop-color:#FBDDD9"/>
					<stop  offset="0.815" style="stop-color:#E3BABC"/>
					<stop  offset="1" style="stop-color:#E3BABC"/>
				</linearGradient>
				<polygon class="st20" points="1441.45,1010.86 1438.55,528.63 2890.48,519.88 2893.38,1002.11 				"/>
			</g>
		</g>
	</g>
	<rect x="0" class="st21" width="2880" height="1620"/>
	<g class="st22">
		<g>
			<defs>
				<rect id="SVGID_47_" x="0.14" y="972.9" width="2879.71" height="647.1"/>
			</defs>
			<clipPath id="SVGID_48_">
				<use xlink:href="#SVGID_47_"  style="overflow:visible;"/>
			</clipPath>
			<g class="st23">
				<defs>
					<path id="SVGID_49_" d="M0.14,1620h2879.71v-526.61h-2.13v169.27h-34.49v-105.01l-54.86-54.86v231.96h-28.21v-130.1h-54.86
						v-123.81h-16.46l-21.94-21.94v21.94h-18.01l-21.95-21.94v21.94h-10.97v184.93h-26.65v-47.02h-37.62v23.52h-17.24v-92.48h-59.54
						v114.42h-14.11v59.56h-10.97v-231.96c0-9.09-19.3-16.46-43.11-16.46c-23.81,0-43.11,7.36-43.11,16.46v216.28h-26.65v-250.77
						l-41.52-41.52v-29h-7.84v28.99l-43.89,43.88v199.83h-22.72v-79.93h-16.46v-47.01h-7.84v47.01h-10.19v-28.21h-7.83v28.21h-29.8
						v21.94h-21.93v18.81h-21.94v-72.1h-12.55v-65.83l-26.65-26.65v-24.3h-12.54v24.3l-23.5,23.51v64.26h-14.11v25.08h-7.84v62.68
						h-17.23v-21.94h-36.06v15.67h-23.49v141.06h-21.96v-227.26h-43.88v112.84h-50.15v-128.52h-32.92V972.9h-9.39v62.5h-25.09v-62.5
						h-9.4v150.26h-36.03v57.99h-17.25v-26.64h-34.49v119.11l-29.78-29.78v83.07l-24.29,24.29v-96.38l-11.35-11.36v-57.61
						l-17.43-17.43h-6.02v-86.8h-3.63v-48.77h-4.71v48.77h-3.61v86.8h-7.3l-19.7,19.69v54.17l-12.1,12.1v0.23h-19.62v-161.21h-20.37
						v-64.27h-10.19v64.27h-19.59v117.55h-1.88v51.72h-32.61v-105.01l-54.86-54.86v231.96h-28.21v-130.1h-54.86v-123.81h-16.46
						l-21.94-21.94v21.94H1212l-21.94-21.94v21.94h-10.97v184.93h-26.65v-47.02h-37.62v23.52h-17.23v-92.48h-59.55v114.42h-14.1
						v59.56h-10.97v-231.96c0-9.09-19.3-16.46-43.11-16.46c-23.8,0-43.11,7.36-43.11,16.46v216.28h-26.65v-250.77l-41.51-41.52v-29
						h-7.84v28.99l-43.89,43.88v199.83h-22.72v-79.93h-16.46v-47.01h-7.84v47.01h-10.19v-28.21h-7.83v28.21h-29.8v21.94H690.1v18.81
						h-21.94v-72.1h-12.55v-65.83l-26.65-26.65v-24.3h-12.55v24.3l-23.5,23.51v64.26h-14.1v25.08h-7.84v62.68h-17.24v-21.94h-36.06
						v15.67h-23.49v141.06h-21.96v-227.26h-43.89v112.84h-50.15v-128.52h-32.91V972.9h-9.4v62.5h-25.09v-62.5h-9.4v150.26h-36.03
						v57.99h-17.25v-26.64h-34.49v119.11l-29.78-29.78v83.07l-24.29,24.29v-96.38l-11.35-11.36v-57.61l-17.42-17.43h-6.03v-86.8
						h-3.63v-48.77h-4.7v48.77h-3.61v86.8h-7.3l-19.7,19.69v54.17l-12.1,12.1v36.49H44.36v-79.93H2.05v57.99H0.14V1620z"/>
				</defs>
				<clipPath id="SVGID_50_">
					<use xlink:href="#SVGID_49_"  style="overflow:visible;"/>
				</clipPath>
				
					<linearGradient id="SVGID_51_" gradientUnits="userSpaceOnUse" x1="-0.3622" y1="1619.9999" x2="0.6376" y2="1619.9999" gradientTransform="matrix(0 -874.2791 -874.2791 0 1417772 1428.7867)">
					<stop  offset="0" style="stop-color:#000000"/>
					<stop  offset="0.0169" style="stop-color:#000000"/>
					<stop  offset="1" style="stop-color:#EE7E7C"/>
				</linearGradient>
				<rect x="0.14" y="972.9" class="st24" width="2879.71" height="647.1"/>
			</g>
		</g>
	</g>
</g>
</svg>
